# Blender v2.78 (sub 4) OBJ File: 'SHIP-cleanup.blend'
# www.blender.org
mtllib SHIP-cleanup.mtl
o Ship_Cone
v 0.440839 -0.080000 2.500000
v 1.154131 0.019080 2.500000
v 0.000000 0.548593 2.500000
v 0.848858 0.164378 0.144963
v 0.000000 0.354772 -1.250000
v 0.000000 0.630815 0.000000
v 0.000000 -0.080000 0.944679
v 0.337977 -0.464603 1.106645
v 0.683572 -0.382308 1.875000
v 0.741604 -0.080000 3.025544
v 0.895667 -0.386550 2.459319
v 1.071393 0.192798 2.280385
v 1.426585 0.114061 2.500000
v 0.000000 -0.464603 1.106645
v 0.470228 -0.253134 -0.000000
v 0.675953 -0.339250 1.250000
v 0.264503 -0.167018 -1.250000
v 0.084859 -0.080000 -2.388284
v 0.000000 0.039919 -1.250000
v 0.000000 -0.080000 -2.455296
v 0.000000 -0.080000 -2.459179
v 0.132775 0.030902 -2.500000
v 0.799518 -0.346329 1.874071
v 0.000000 -0.080000 -2.463894
v 0.137554 -0.080000 -2.500000
v 0.000000 0.548593 2.500000
v 0.000000 1.007908 1.250000
v 0.000000 0.100000 -2.500000
v 1.147796 0.022963 2.339782
v 0.514748 0.209211 0.220170
v 0.029261 -0.080000 -2.414978
v 0.000000 -0.080000 -2.480490
v -0.440839 -0.080000 2.500000
v -1.154131 0.019080 2.500000
v -0.848858 0.164378 0.144963
v -0.337976 -0.464603 1.106645
v -0.741604 -0.080000 3.025544
v -0.683572 -0.382308 1.875000
v -0.895667 -0.386550 2.459319
v -1.426585 0.114061 2.500000
v -1.071393 0.192798 2.280385
v -0.675953 -0.339250 1.250000
v -0.470228 -0.253134 -0.000000
v -0.132252 0.039919 -1.250000
v -0.264503 -0.167018 -1.250000
v -0.084859 -0.080000 -2.388284
v -0.132775 0.030902 -2.500000
v -0.799518 -0.346329 1.874071
v -0.137554 -0.080000 -2.500000
v -1.147796 0.022963 2.339782
v -0.514748 0.209211 0.220170
v -0.028940 -0.080000 -2.414978
v 0.000000 -0.577753 2.500000
v 1.154131 -0.179080 2.500000
v 0.848858 -0.324378 0.144963
v 0.000000 -0.790815 -0.000000
v 0.000000 -0.514772 -1.250000
v 0.895667 0.226550 2.459319
v 1.426585 -0.274061 2.500000
v 1.071393 -0.352798 2.280385
v 0.675953 0.179250 1.250000
v 0.470228 0.093134 0.000000
v 0.132252 -0.199919 -1.250000
v 0.264503 0.007018 -1.250000
v 0.132775 -0.190902 -2.500000
v 0.000000 -0.577753 2.500000
v 0.000000 -0.610310 1.250000
v 0.000000 -0.260000 -2.500000
v 1.147796 -0.182963 2.339782
v 0.514748 -0.369211 0.220170
v -1.154131 -0.179080 2.500000
v -0.848858 -0.324378 0.144963
v -0.895667 0.226550 2.459319
v -1.071393 -0.352798 2.280385
v -1.426585 -0.274061 2.500000
v -0.470228 0.093134 0.000000
v -0.675953 0.179250 1.250000
v -0.132252 -0.199919 -1.250000
v -0.264503 0.007018 -1.250000
v -0.132775 -0.190902 -2.500000
v -1.147796 -0.182963 2.339782
v -0.514748 -0.369211 0.220170
vn 0.0000 0.0000 1.0000
vn 0.4974 0.8471 -0.1871
vn -0.7768 -0.5899 0.2202
vn -0.3512 -0.9011 0.2545
vn 0.7218 -0.5072 0.4710
vn 0.2482 -0.7121 -0.6568
vn 0.3919 -0.9112 -0.1273
vn -0.6369 -0.7372 0.2258
vn -0.2385 -0.9704 0.0378
vn 0.9256 -0.3351 -0.1760
vn 0.8149 -0.5465 -0.1930
vn -0.6411 0.7675 0.0000
vn 0.2539 0.0109 0.9672
vn -0.7975 -0.5593 0.2261
vn -0.1372 0.9874 0.0785
vn 0.2749 0.9025 0.3316
vn 0.4551 0.8746 -0.1674
vn 0.6068 0.7838 -0.1321
vn 0.4987 0.8298 -0.2503
vn 0.4806 0.8593 -0.1751
vn 0.0000 0.3881 0.9216
vn -0.4668 -0.8430 0.2672
vn 0.3723 -0.9256 -0.0683
vn 0.8445 -0.5335 -0.0463
vn 0.9151 0.4024 -0.0264
vn 0.2936 -0.9492 -0.1135
vn -0.1271 -0.9915 0.0264
vn 0.7341 0.6510 -0.1932
vn 0.0515 -0.3089 -0.9497
vn -0.1039 -0.9865 0.1265
vn -0.0560 -0.1076 -0.9926
vn 0.6411 -0.7675 -0.0000
vn 0.2951 -0.9529 -0.0692
vn -0.4354 -0.8657 0.2468
vn -0.4899 -0.8335 0.2554
vn -0.5616 -0.7836 0.2657
vn 0.4612 -0.7207 -0.5176
vn 1.0000 0.0000 -0.0000
vn 1.0000 0.0000 -0.0001
vn 0.0000 0.0000 -0.0000
vn -0.4974 0.8471 -0.1871
vn 0.7768 -0.5899 0.2202
vn 0.3512 -0.9011 0.2545
vn -0.7218 -0.5072 0.4710
vn -0.2482 -0.7121 -0.6568
vn -0.3919 -0.9112 -0.1273
vn 0.6369 -0.7372 0.2258
vn 0.2385 -0.9704 0.0378
vn -0.9256 -0.3351 -0.1760
vn -0.8149 -0.5465 -0.1930
vn 0.6411 0.7675 0.0000
vn -0.2539 0.0109 0.9672
vn 0.7975 -0.5593 0.2261
vn 0.1372 0.9874 0.0785
vn -0.2749 0.9025 0.3316
vn -0.4551 0.8746 -0.1674
vn -0.6068 0.7838 -0.1321
vn -0.4987 0.8298 -0.2503
vn -0.4806 0.8593 -0.1751
vn 0.4668 -0.8430 0.2672
vn -0.3723 -0.9256 -0.0683
vn -0.8445 -0.5335 -0.0463
vn -0.9151 0.4024 -0.0264
vn -0.2936 -0.9492 -0.1135
vn 0.1271 -0.9915 0.0264
vn -0.7341 0.6510 -0.1932
vn -0.0515 -0.3089 -0.9497
vn 0.6529 0.0749 0.7537
vn -0.6598 0.0744 0.7478
vn -0.6598 0.0729 0.7479
vn -0.6717 -0.7408 0.0000
vn 0.1039 -0.9865 0.1265
vn 0.0560 -0.1076 -0.9926
vn -0.6411 -0.7675 -0.0000
vn -0.2951 -0.9529 -0.0692
vn -0.6954 -0.7121 -0.0964
vn -0.7165 -0.6888 -0.1101
vn -0.7044 -0.7024 -0.1022
vn -0.4612 -0.7207 -0.5176
vn 0.4974 -0.8471 -0.1871
vn 0.7218 0.5072 0.4710
vn 0.2482 0.7121 -0.6568
vn -0.2385 0.9704 0.0378
vn 0.9256 0.3351 -0.1760
vn 0.8149 0.5465 -0.1930
vn 0.2539 -0.0109 0.9672
vn -0.7323 0.6486 0.2076
vn -0.1372 -0.9874 0.0785
vn 0.2081 -0.9778 0.0255
vn 0.4551 -0.8746 -0.1674
vn 0.2661 -0.9629 -0.0447
vn 0.4610 -0.8783 0.1268
vn 0.4806 -0.8593 -0.1751
vn 0.8445 0.5335 -0.0463
vn 0.9151 -0.4024 -0.0264
vn -0.1271 0.9915 0.0264
vn 0.0000 1.0000 0.0000
vn 0.7341 -0.6510 -0.1932
vn 0.0515 0.3089 -0.9497
vn 0.6717 0.7408 0.0000
vn -0.1039 0.9865 0.1265
vn -0.0560 0.1076 -0.9926
vn 0.1246 0.9913 0.0417
vn 0.1244 0.9910 0.0497
vn 0.1245 0.9912 0.0454
vn 0.4612 0.7207 -0.5176
vn 1.0000 -0.0000 0.0001
vn -0.4974 -0.8471 -0.1871
vn -0.7218 0.5072 0.4710
vn -0.2482 0.7121 -0.6568
vn 0.2385 0.9704 0.0378
vn -0.9256 0.3351 -0.1760
vn -0.8149 0.5465 -0.1930
vn -0.2539 -0.0109 0.9672
vn 0.7323 0.6486 0.2076
vn 0.1372 -0.9874 0.0785
vn -0.2081 -0.9778 0.0255
vn -0.4551 -0.8746 -0.1674
vn -0.2661 -0.9629 -0.0447
vn -0.4610 -0.8783 0.1268
vn -0.4806 -0.8593 -0.1751
vn -0.8445 0.5335 -0.0463
vn -0.9151 -0.4024 -0.0264
vn 0.1271 0.9915 0.0264
vn -0.7341 -0.6510 -0.1932
vn -0.0515 0.3089 -0.9497
vn -0.6717 0.7408 0.0000
vn 0.1039 0.9865 0.1265
vn 0.0560 0.1076 -0.9926
vn -0.0056 -0.0167 -0.9998
vn -0.0152 0.0595 -0.9981
vn -0.0246 0.1353 -0.9905
vn -0.4612 0.7207 -0.5176
usemtl Material.003
s off
f 1//1 2//1 3//1
f 4//2 5//2 6//2
f 7//3 8//3 1//3
f 8//4 9//4 10//4
f 11//5 2//5 10//5
f 2//6 12//6 13//6
f 8//7 15//7 16//7
f 9//8 11//8 10//8
f 12//9 4//9 13//9
f 18//10 12//10 11//10
f 4//11 18//11 22//11
f 22//12 21//12 20//12
f 22//13 24//13 25//13
f 26//14 7//14 1//14
f 1//15 10//15 2//15
f 2//1 13//1 3//1
f 3//1 26//1 1//1
f 27//16 3//16 13//16
f 4//17 22//17 28//17
f 27//18 13//18 4//18
f 6//19 27//19 4//19
f 4//20 28//20 5//20
f 7//21 14//21 8//21
f 10//22 1//22 8//22
f 8//23 16//23 9//23
f 11//24 29//24 2//24
f 2//25 29//25 12//25
f 9//26 23//26 11//26
f 12//27 30//27 4//27
f 18//28 30//28 12//28
f 12//29 29//29 11//29
f 4//30 30//30 18//30
f 32//31 28//31 22//31
f 20//32 32//32 22//32
f 23//33 9//33 16//33
f 16//34 15//35 17//36
f 22//37 18//37 24//37
f 26//38 27//39 3//40
f 33//1 3//1 34//1
f 35//41 6//41 5//41
f 7//42 33//42 36//42
f 36//43 37//43 38//43
f 39//44 37//44 34//44
f 34//45 40//45 41//45
f 36//46 42//46 43//46
f 38//47 37//47 39//47
f 41//48 40//48 35//48
f 46//49 39//49 41//49
f 35//50 47//50 46//50
f 47//51 20//51 21//51
f 47//52 49//52 24//52
f 26//53 33//53 7//53
f 33//54 34//54 37//54
f 34//1 3//1 40//1
f 3//1 33//1 26//1
f 27//55 40//55 3//55
f 35//56 28//56 47//56
f 27//57 35//57 40//57
f 6//58 35//58 27//58
f 35//59 5//59 28//59
f 7//21 36//21 14//21
f 37//60 36//60 33//60
f 36//61 38//61 42//61
f 39//62 34//62 50//62
f 34//63 41//63 50//63
f 38//64 39//64 48//64
f 41//65 35//65 51//65
f 46//66 41//66 51//66
f 41//67 39//67 50//67
f 19//68 20//69 32//70
f 44//71 21//71 20//71
f 35//72 46//72 51//72
f 32//73 47//73 28//73
f 20//74 47//74 32//74
f 48//75 42//75 38//75
f 42//76 45//77 43//78
f 47//79 24//79 46//79
f 1//1 53//1 54//1
f 55//80 56//80 57//80
f 58//81 10//81 54//81
f 54//82 59//82 60//82
f 60//83 59//83 55//83
f 18//84 58//84 60//84
f 55//85 65//85 18//85
f 65//74 20//74 21//74
f 65//86 25//86 24//86
f 66//87 1//87 7//87
f 1//88 54//88 10//88
f 54//1 53//1 59//1
f 53//1 1//1 66//1
f 67//89 59//89 53//89
f 55//90 68//90 65//90
f 67//91 55//91 59//91
f 56//92 55//92 67//92
f 55//93 57//93 68//93
f 58//94 54//94 69//94
f 54//95 60//95 69//95
f 60//96 55//96 70//96
f 31//97 18//97 24//97
f 18//98 60//98 70//98
f 60//99 58//99 69//99
f 63//100 21//100 20//100
f 55//101 18//101 70//101
f 32//102 65//102 68//102
f 20//51 65//51 32//51
f 61//103 64//104 62//105
f 65//106 24//106 18//106
f 24//97 21//97 31//97
f 66//40 53//38 67//107
f 33//1 71//1 53//1
f 72//108 57//108 56//108
f 73//109 71//109 37//109
f 71//110 74//110 75//110
f 74//111 72//111 75//111
f 46//112 74//112 73//112
f 72//113 46//113 80//113
f 80//32 21//32 20//32
f 80//114 24//114 49//114
f 66//115 7//115 33//115
f 33//116 37//116 71//116
f 71//1 75//1 53//1
f 53//1 66//1 33//1
f 67//117 53//117 75//117
f 72//118 80//118 68//118
f 67//119 75//119 72//119
f 56//120 67//120 72//120
f 72//121 68//121 57//121
f 73//122 81//122 71//122
f 71//123 81//123 74//123
f 74//124 82//124 72//124
f 52//97 24//97 46//97
f 46//125 82//125 74//125
f 74//126 81//126 73//126
f 78//127 20//127 21//127
f 72//128 82//128 46//128
f 32//129 68//129 80//129
f 20//12 32//12 80//12
f 77//130 76//131 79//132
f 80//133 46//133 24//133
f 24//97 52//97 21//97
f 7//38 66//38 67//38
